{"title":"Chennai Express 2013 BRRip 720p x264 Hindi ESubs - ViZNU [P2PDL]","uid":9250967,"size":1047372894,"categoryP":"video","categoryS":"hd___movies","magnet":"?xt=urn:btih:06c4ca2290d15ffb4494dfca5d2b3fc6b8a9b991&amp;dn=Chennai+Express+2013+BRRip+720p+x264+Hindi+ESubs+-+ViZNU+%5BP2PDL%5D&amp;tr=udp%3A%2F%2Ftracker.openbittorrent.com%3A80&amp;tr=udp%3A%2F%2Fopen.demonii.com%3A1337&amp;tr=udp%3A%2F%2Ftracker.coppersurfer.tk%3A6969&amp;tr=udp%3A%2F%2Fexodus.desync.com%3A6969","seeders":5,"leechers":4,"uploader":"Vitamin_X","files":-1,"time":1385459030,"description":"_______ Visit us at our Semi Public Bittorrent Community ________\n  &lt;a href=&quot;\nhttp://p2pdl.com&quot; rel=&quot;nofollow&quot; target=&quot;_NEW&quot;&gt;\nhttp://p2pdl.com&lt;/a&gt;  _____________________________ &lt;a href=&quot; http://p2pdl.com&quot; rel=&quot;nofollow&quot; target=&quot;_NEW&quot;&gt; http://p2pdl.com&lt;/a&gt;\n\n\nChennai Express 2013 BRRip 720p x264 Hindi ESubs - ViZNU\n\n\nGenre: Action | Comedy | Romance\nPlot: Rahul embarks on a journey to a small town in \nTamil Nadu to fulfill the last wish of his grandfather: \nto have his ashes immersed in the Holy water of \nRameshwaram. En route, he meets a woman hailing \nfrom a unique family down South. As they find love \nthrough this journey in the exuberant lands of South \nIndia, an unanticipated drive awaits them.\nDirector: Rohit Shetty\nStars: Deepika Padukone, Shah Rukh Khan, Satyaraj. \nRated: U/A .\n\n\nIMDb: &lt;a href=&quot;\nhttp://www.imdb.com/title/tt2855648/&quot; rel=&quot;nofollow&quot; target=&quot;_NEW&quot;&gt;\nhttp://www.imdb.com/title/tt2855648/&lt;/a&gt;\n\n\nGeneral\nFormat                         : MPEG-4\nFile size                      : 994 MiB\nDuration                       : 2h 21mn\nOverall bit rate mode          : Variable\nOverall bit rate               : 983 Kbps\n\nVideo\nFormat                         : AVC\nBit rate                       : 901 Kbps\nWidth                          : 1 280 pixels\nHeight                         : 544 pixels\nDisplay aspect ratio           : 2.35:1\nFrame rate mode                : Constant\nFrame rate                     : 24.000 fps\nBit depth                      : 10 bits\nStream size                    : 910 MiB (92%)\nWriting library                : x264 core 138 r2358 9e941d1\n\nAudio\nFormat                         : AAC\nBit rate                       : 79.6 Kbps\nChannel count                  : 2 channels\nChannel positions              : Front: L R\nSampling rate                  : 48.0 KHz / 24.0 KHz\nStream size                    : 80.5 MiB (8%)\nLanguage                       : Hindi\n\n\nSubtitle                       : Yes (English)\n\nSource                         : 720p Blu-ray x264 DTS ESub [DDR-Exclusive]\n\nScreenshots: &lt;a href=&quot;\nhttp://ultraimg.com/images/QiNbs.png&quot; rel=&quot;nofollow&quot; target=&quot;_NEW&quot;&gt;\nhttp://ultraimg.com/images/QiNbs.png&lt;/a&gt; &lt;a href=&quot;\nhttp://ultraimg.com/images/wVE18.png&quot; rel=&quot;nofollow&quot; target=&quot;_NEW&quot;&gt;\nhttp://ultraimg.com/images/wVE18.png&lt;/a&gt; &lt;a href=&quot;\nhttp://ultraimg.com/images/MPZQ2.png&quot; rel=&quot;nofollow&quot; target=&quot;_NEW&quot;&gt;\nhttp://ultraimg.com/images/MPZQ2.png&lt;/a&gt; &lt;a href=&quot;\nhttp://ultraimg.com/images/Zh1Tf.png&quot; rel=&quot;nofollow&quot; target=&quot;_NEW&quot;&gt;\nhttp://ultraimg.com/images/Zh1Tf.png&lt;/a&gt; &lt;a href=&quot;\nhttp://ultraimg.com/images/E3BG.png&quot; rel=&quot;nofollow&quot; target=&quot;_NEW&quot;&gt;\nhttp://ultraimg.com/images/E3BG.png&lt;/a&gt;\n\n----------------------------------------------------------------------------------------------------\n\n\nEncoded using revolutionary 10bit encoding, which enables us to provide you more crispier \nand sharper images at small sizes, just make sure you follow our instructions without a fault.\nRecommend to you to use latest version of VLC player. Install K-Lite Codec Pack or shark007 codecs\nin case of any kind of problem in playback (For non-VLC Media Player users). Alternatively, install\nCore AVC codecs, the fastest decoder that there is coupled with Community Center Codec Pack and play\non Windows Media Player Classic. Check sample to be sure.\nEnjoy!\n\nEncoder Notes:Looking For Early Access To Anything You Can Provide DVDScr, R5, DVDR, BluRay, Direct\nAudio, Music Releases and Seedboxes. We require dedicated servers, so as to do more \nand fast releases of movies.\nIf You Got anything to offer please contact us at &quot;&lt;a class=&quot;__cf_email__&quot; href=&quot;/cdn-cgi/l/email-protection&quot; data-cfemail=&quot;f6868491b69e83859ed895999b&quot;&gt;[email&amp;#160;protected]&lt;/a&gt;&lt;script cf-hash='f9e31' type=&quot;text/javascript&quot;&gt;\n/* &lt;![CDATA[ */!function(){try{var t=&quot;currentScript&quot;in document?document.currentScript:function(){for(var t=document.getElementsByTagName(&quot;script&quot;),e=t.length;e--;)if(t[e].getAttribute(&quot;cf-hash&quot;))return t[e]}();if(t&amp;&amp;t.previousSibling){var e,r,n,i,c=t.previousSibling,a=c.getAttribute(&quot;data-cfemail&quot;);if(a){for(e=&quot;&quot;,r=parseInt(a.substr(0,2),16),n=2;a.length-n;n+=2)i=parseInt(a.substr(n,2),16)^r,e+=String.fromCharCode(i);e=document.createTextNode(e),c.parentNode.replaceChild(e,c)}}}catch(u){}}();/* ]]&gt; */&lt;/script&gt;&quot;.\n\nFacebook Fan Page:  \nSearch P2PDL on FB and don't forget to hit like!!!\n\nSupport us, please consider a donation.\n\nFor more of our team uploads visit @            &lt;a href=&quot;\nhttp://thepiratebay.se/user/varuttee&quot; rel=&quot;nofollow&quot; target=&quot;_NEW&quot;&gt;\nhttp://thepiratebay.se/user/varuttee&lt;/a&gt;\t","torrent":{"xt":"urn:btih:06c4ca2290d15ffb4494dfca5d2b3fc6b8a9b991","amp;dn":"Chennai+Express+2013+BRRip+720p+x264+Hindi+ESubs+-+ViZNU+%5BP2PDL%5D","amp;tr":["udp%3A%2F%2Ftracker.openbittorrent.com%3A80","udp%3A%2F%2Fopen.demonii.com%3A1337","udp%3A%2F%2Ftracker.coppersurfer.tk%3A6969","udp%3A%2F%2Fexodus.desync.com%3A6969"],"infoHash":"06c4ca2290d15ffb4494dfca5d2b3fc6b8a9b991","infoHashBuffer":{"type":"Buffer","data":[6,196,202,34,144,209,95,251,68,148,223,202,93,43,63,198,184,169,185,145]},"announce":[],"urlList":[]}}